<?xml version="1.0" encoding="UTF-8"?>
<svg version="1.1" xmlns="http://www.w3.org/2000/svg" width="376" height="379">
<path d="M0 0 C0.33 0.66 0.66 1.32 1 2 C2.03125 2.103125 3.0625 2.20625 4.125 2.3125 C19.45363618 3.94320598 36.49423394 12.22756989 49.46875 20.28515625 C49.9740625 20.52105469 50.479375 20.75695312 51 21 C51.66 20.67 52.32 20.34 53 20 C53.33 20.99 53.66 21.98 54 23 C56.10889008 24.56484351 56.10889008 24.56484351 58.75 26.0625 C70.07290887 33.05520082 79.9828047 41.45639223 89.56884766 50.640625 C90.80184119 51.81177955 92.06073671 52.95555442 93.32421875 54.09375 C100.89725998 61.1488568 106.65048441 69.77678655 112.63061523 78.17163086 C114.01338228 80.10810047 114.01338228 80.10810047 116 82 C116.33 82.99 116.66 83.98 117 85 C117.95284703 86.64923851 118.90832949 88.29705234 119.8815918 89.93432617 C134.78205356 115.20996991 142.88435835 144.72285852 144 174 C144.02723145 174.64743164 144.05446289 175.29486328 144.08251953 175.96191406 C145.75880214 221.48511082 131.28617155 267.31567417 101.3984375 302.046875 C99.70891962 304.00617851 99.70891962 304.00617851 100 307 C99.443125 307.20625 98.88625 307.4125 98.3125 307.625 C96.02890674 308.98281221 95.0008439 310.07942786 93.375 312.125 C92.59125 313.07375 91.8075 314.0225 91 315 C90.34 315 89.68 315 89 315 C88.67 315.99 88.34 316.98 88 318 C87.34 318 86.68 318 86 318 C86 318.66 86 319.32 86 320 C83.5349849 322.5476413 80.72760756 324.73960091 78 327 C77.24074219 327.63421875 76.48148437 328.2684375 75.69921875 328.921875 C42.21969745 356.31919194 2.30268604 371.16170263 -41 371.3125 C-41.74655853 371.31545074 -42.49311707 371.31840149 -43.26229858 371.32144165 C-60.84075152 371.33715575 -77.83934217 368.92550416 -94.83984375 364.41796875 C-97.03790213 363.76520879 -97.03790213 363.76520879 -99 365 C-99 364.01 -99 363.02 -99 362 C-99.65194336 361.84797119 -100.30388672 361.69594238 -100.97558594 361.53930664 C-108.51797422 359.64836983 -115.27402073 356.8437209 -122.25 353.4375 C-123.89415894 352.63904663 -123.89415894 352.63904663 -125.5715332 351.82446289 C-139.68802198 344.83759811 -151.82633874 335.91639671 -164 326 C-164.80179687 325.35417969 -165.60359375 324.70835937 -166.4296875 324.04296875 C-167.99840662 322.74830297 -169.50951908 321.384018 -171 320 C-171 319.34 -171 318.68 -171 318 C-171.55429688 317.77957031 -172.10859375 317.55914062 -172.6796875 317.33203125 C-181.65364964 312.18031225 -192.34290509 298.31418982 -197 289 C-197.99 288.34 -198.98 287.68 -200 287 C-200 286.34 -200 285.68 -200 285 C-200.99 284.67 -201.98 284.34 -203 284 C-203 282.68 -203 281.36 -203 280 C-204.49222401 277.00544738 -204.49222401 277.00544738 -206.4375 273.9375 C-209.91568047 268.25295858 -209.91568047 268.25295858 -211 265 C-211.77160779 263.14980066 -212.54415138 261.29997979 -213.32373047 259.453125 C-223.39477815 235.49921506 -223.39477815 235.49921506 -224 224 C-224.99 224 -225.98 224 -227 224 C-226.72542969 222.92878906 -226.72542969 222.92878906 -226.4453125 221.8359375 C-225.96215884 218.75901156 -226.25344382 216.66466517 -226.875 213.625 C-230.54414601 193.27115627 -232.5729802 163.71894061 -226 144 C-225.53289831 142.35329858 -225.07286265 140.70458741 -224.6171875 139.0546875 C-215.03736957 104.86739325 -200.0340986 76.43405166 -175 51 C-173.98364006 49.94602071 -172.96798292 48.89136313 -171.953125 47.8359375 C-167.44480761 43.1914911 -162.91982901 38.87464431 -157.55859375 35.21875 C-155.70953303 33.90420902 -155.70953303 33.90420902 -154 31 C-153.34 31 -152.68 31 -152 31 C-149.90312272 29.70407584 -147.85811043 28.37271957 -145.8125 27 C-103.65548341 -0.54077097 -49.48761269 -11.11050419 0 0 Z " fill="#FBB622" transform="translate(230,5)"/>
<path d="M0 0 C0.33 0.66 0.66 1.32 1 2 C2.03125 2.103125 3.0625 2.20625 4.125 2.3125 C19.45363618 3.94320598 36.49423394 12.22756989 49.46875 20.28515625 C49.9740625 20.52105469 50.479375 20.75695312 51 21 C51.66 20.67 52.32 20.34 53 20 C53.33 20.99 53.66 21.98 54 23 C56.10889008 24.56484351 56.10889008 24.56484351 58.75 26.0625 C70.07290887 33.05520082 79.9828047 41.45639223 89.56884766 50.640625 C90.80184119 51.81177955 92.06073671 52.95555442 93.32421875 54.09375 C100.89725998 61.1488568 106.65048441 69.77678655 112.63061523 78.17163086 C114.01338228 80.10810047 114.01338228 80.10810047 116 82 C116.33 82.99 116.66 83.98 117 85 C117.95284703 86.64923851 118.90832949 88.29705234 119.8815918 89.93432617 C134.78205356 115.20996991 142.88435835 144.72285852 144 174 C144.02723145 174.64743164 144.05446289 175.29486328 144.08251953 175.96191406 C145.75880214 221.48511082 131.28617155 267.31567417 101.3984375 302.046875 C99.70891962 304.00617851 99.70891962 304.00617851 100 307 C99.443125 307.20625 98.88625 307.4125 98.3125 307.625 C96.02890674 308.98281221 95.0008439 310.07942786 93.375 312.125 C92.59125 313.07375 91.8075 314.0225 91 315 C90.34 315 89.68 315 89 315 C88.67 315.99 88.34 316.98 88 318 C87.34 318 86.68 318 86 318 C86 318.66 86 319.32 86 320 C83.5349849 322.5476413 80.72760756 324.73960091 78 327 C77.24074219 327.63421875 76.48148437 328.2684375 75.69921875 328.921875 C42.21969745 356.31919194 2.30268604 371.16170263 -41 371.3125 C-41.74655853 371.31545074 -42.49311707 371.31840149 -43.26229858 371.32144165 C-60.84075152 371.33715575 -77.83934217 368.92550416 -94.83984375 364.41796875 C-97.03790213 363.76520879 -97.03790213 363.76520879 -99 365 C-99 364.01 -99 363.02 -99 362 C-99.65194336 361.84797119 -100.30388672 361.69594238 -100.97558594 361.53930664 C-108.51797422 359.64836983 -115.27402073 356.8437209 -122.25 353.4375 C-123.89415894 352.63904663 -123.89415894 352.63904663 -125.5715332 351.82446289 C-139.68802198 344.83759811 -151.82633874 335.91639671 -164 326 C-164.80179687 325.35417969 -165.60359375 324.70835937 -166.4296875 324.04296875 C-167.99840662 322.74830297 -169.50951908 321.384018 -171 320 C-171 319.34 -171 318.68 -171 318 C-171.55429688 317.77957031 -172.10859375 317.55914062 -172.6796875 317.33203125 C-181.65364964 312.18031225 -192.34290509 298.31418982 -197 289 C-197.99 288.34 -198.98 287.68 -200 287 C-200 286.34 -200 285.68 -200 285 C-200.99 284.67 -201.98 284.34 -203 284 C-203 282.68 -203 281.36 -203 280 C-204.49222401 277.00544738 -204.49222401 277.00544738 -206.4375 273.9375 C-209.91568047 268.25295858 -209.91568047 268.25295858 -211 265 C-211.77160779 263.14980066 -212.54415138 261.29997979 -213.32373047 259.453125 C-223.39477815 235.49921506 -223.39477815 235.49921506 -224 224 C-224.99 224 -225.98 224 -227 224 C-226.72542969 222.92878906 -226.72542969 222.92878906 -226.4453125 221.8359375 C-225.96215884 218.75901156 -226.25344382 216.66466517 -226.875 213.625 C-230.54414601 193.27115627 -232.5729802 163.71894061 -226 144 C-225.53289831 142.35329858 -225.07286265 140.70458741 -224.6171875 139.0546875 C-215.03736957 104.86739325 -200.0340986 76.43405166 -175 51 C-173.98364006 49.94602071 -172.96798292 48.89136313 -171.953125 47.8359375 C-167.44480761 43.1914911 -162.91982901 38.87464431 -157.55859375 35.21875 C-155.70953303 33.90420902 -155.70953303 33.90420902 -154 31 C-153.34 31 -152.68 31 -152 31 C-149.90312272 29.70407584 -147.85811043 28.37271957 -145.8125 27 C-103.65548341 -0.54077097 -49.48761269 -11.11050419 0 0 Z M-111.20849609 38.0703125 C-113.07256649 39.03765784 -114.95109108 39.97218736 -116.83203125 40.90625 C-125.22459662 45.146001 -132.68609648 50.04905488 -140 56 C-140.54430664 56.44279297 -141.08861328 56.88558594 -141.64941406 57.34179688 C-173.13152792 83.09824803 -195.04365502 119.96081279 -199.60546875 160.83203125 C-201.25030481 179.55252681 -200.08831221 197.69020174 -196 216 C-195.85046875 216.70511719 -195.7009375 217.41023437 -195.546875 218.13671875 C-189.56746008 245.87456017 -174.32554838 269.72117345 -155 290 C-154.33355469 290.71929687 -153.66710937 291.43859375 -152.98046875 292.1796875 C-129.30050211 317.00626305 -92.22297812 334.28736428 -57.8894043 335.26286316 C-54.21748442 335.32770626 -50.54735624 335.33050876 -46.875 335.3125 C-46.1034256 335.31067719 -45.3318512 335.30885437 -44.53689575 335.30697632 C-32.79168217 335.26028927 -21.46644481 334.74244537 -10 332 C-9.26652344 331.83371094 -8.53304687 331.66742188 -7.77734375 331.49609375 C12.74219717 326.74457055 33.63450291 317.67491295 49 303 C50.24691162 301.93387727 51.4970456 300.87151441 52.75 299.8125 C86.56745323 270.03196389 106.10371727 231.10302112 109 186 C111.30511274 145.14057684 97.13881145 105.0361805 70.0637207 74.45581055 C44.09874267 45.81004181 7.13510413 25.24601467 -32 23 C-59.45794401 21.79262941 -86.55627581 25.26183169 -111.20849609 38.0703125 Z " fill="#16130B" transform="translate(230,5)"/>
<path d="M0 0 C5.63136776 3.6412702 9.93322064 8.55394128 12.9375 14.5625 C13.4375 17.25 13.4375 17.25 12.9375 20.5625 C10.53493332 23.75615571 7.48915185 26.26748588 4.43188477 28.8190918 C-2.43893924 34.65905961 -8.7374159 41.08696492 -15.09887695 47.46850586 C-17.12014268 49.4951298 -19.14669574 51.51635547 -21.17382812 53.53710938 C-29.71782987 62.07257784 -29.71782987 62.07257784 -37.77905273 71.06079102 C-39.43914084 73.00319199 -41.22507702 74.78843644 -43.0625 76.5625 C-45.60064799 79.06189764 -48.00378303 81.60031792 -50.3125 84.3125 C-53.88123839 88.47057133 -57.75287674 92.28132476 -61.64819336 96.12866211 C-65.09335541 99.54779429 -68.34030304 103.07275296 -71.48828125 106.76953125 C-73.65314808 109.23522324 -75.99236797 111.50243653 -78.33203125 113.80078125 C-80.05701481 115.55691576 -81.65432464 117.37614395 -83.25 119.25 C-86.84247062 123.42634847 -90.73174484 127.26045756 -94.64794922 131.12841797 C-98.04239321 134.49721932 -101.2533263 137.96043437 -104.34570312 141.61132812 C-106.08287097 143.58565199 -107.89363127 145.4425673 -109.76171875 147.29296875 C-110.38264404 147.90938232 -111.00356934 148.5257959 -111.64331055 149.16088867 C-112.34580933 149.85468628 -112.34580933 149.85468628 -113.0625 150.5625 C-112.14029663 150.57651855 -112.14029663 150.57651855 -111.19946289 150.59082031 C-43.77377089 151.85122911 -43.77377089 151.85122911 -35.0625 160.5625 C-44.37717773 160.88431228 -53.48633153 160.18391869 -62.75024414 159.27392578 C-68.55520451 158.71776785 -74.23044566 158.46649911 -80.0625 158.5625 C-52.55305397 163.32427355 -25.97253111 165.97132834 1.9375 166.5625 C-1.15801715 168.6261781 -2.57396416 168.95702145 -6.16796875 169.4140625 C-7.15087891 169.54296875 -8.13378906 169.671875 -9.14648438 169.8046875 C-10.17064453 169.93101562 -11.19480469 170.05734375 -12.25 170.1875 C-13.28576172 170.3215625 -14.32152344 170.455625 -15.38867188 170.59375 C-17.94580003 170.92370202 -20.50363797 171.24632514 -23.0625 171.5625 C-14.63781983 175.77484008 -0.07855008 172.14328193 8.4453125 169.45703125 C14.87543147 167.23857195 20.90813654 164.69313103 26.9375 161.5625 C27.5975 161.5625 28.2575 161.5625 28.9375 161.5625 C28.5619031 163.90009649 28.29785516 165.22340175 26.546875 166.87109375 C20.38428586 170.61266573 13.83554842 173.46435705 6.9375 175.5625 C6.06577148 175.82869141 5.19404297 176.09488281 4.29589844 176.36914062 C-4.80660461 178.81614335 -13.5331022 178.95850239 -22.88183594 178.84375 C-25.42658396 178.81263348 -27.97070533 178.80276148 -30.515625 178.796875 C-40.40074979 178.74942985 -50.2087528 178.36090047 -60.0625 177.5625 C-36.25460328 182.83911018 -12.29857959 181.96627936 11.9375 181.5625 C11.6075 182.2225 11.2775 182.8825 10.9375 183.5625 C-5.27307921 188.71689721 -22.8147228 188.8129344 -39.625 188.25 C-40.66670853 188.21561829 -40.66670853 188.21561829 -41.72946167 188.18054199 C-53.43770005 187.77076665 -53.43770005 187.77076665 -57.0625 186.5625 C-58.65579918 186.42636257 -60.25347555 186.33829203 -61.8515625 186.28125 C-62.79386719 186.24386719 -63.73617187 186.20648438 -64.70703125 186.16796875 C-65.69058594 186.13316406 -66.67414063 186.09835937 -67.6875 186.0625 C-73.78929903 185.84136097 -79.81859865 185.53173021 -85.88183594 184.80322266 C-103.00622073 182.91286849 -121.32140238 182.11078256 -138.3125 185.1015625 C-147.96597779 186.71961702 -155.13908025 184.72092022 -163.375 179.4375 C-167.35269845 175.1822877 -170.54249783 170.09613422 -171.40380859 164.24316406 C-170.91561067 160.40881986 -169.14720353 158.93909027 -166.484375 156.171875 C-165.99539734 155.65848572 -165.50641968 155.14509644 -165.00262451 154.6161499 C-163.37149664 152.91564748 -161.7201541 151.23713874 -160.0625 149.5625 C-159.48862549 148.98024658 -158.91475098 148.39799316 -158.32348633 147.7980957 C-154.01661576 143.43908528 -149.66874672 139.12208455 -145.3125 134.8125 C-136.17614076 125.94944783 -136.17614076 125.94944783 -127.578125 116.578125 C-121.41808443 109.31710801 -114.35871717 102.80869455 -107.59619141 96.11669922 C-105.67658658 94.21534433 -103.76012101 92.31086336 -101.84375 90.40625 C-101.26749878 89.83829712 -100.69124756 89.27034424 -100.09753418 88.68518066 C-97.15429989 85.75938587 -94.34227621 82.7735771 -91.63085938 79.63085938 C-88.0009064 75.43370265 -84.13365559 71.52339366 -80.1875 67.625 C-79.45934082 66.90062744 -78.73118164 66.17625488 -77.98095703 65.42993164 C-74.90193049 62.36707576 -71.81691677 59.31027689 -68.73242188 56.25292969 C-66.46534542 54.00405883 -64.20137034 51.75209762 -61.9375 49.5 C-61.25187988 48.82267822 -60.56625977 48.14535645 -59.85986328 47.44750977 C-56.03249306 43.63936549 -52.39187751 39.7407438 -48.90283203 35.61938477 C-46.39755872 32.81931477 -43.73407064 30.20436573 -41.0625 27.5625 C-42.20984619 27.55441315 -43.35719238 27.54632629 -44.53930664 27.53799438 C-55.36799479 27.46040766 -66.19655923 27.37263683 -77.02508545 27.27497292 C-82.59173098 27.22509181 -88.15835829 27.17876105 -93.72509766 27.140625 C-99.10034661 27.10366881 -104.47544 27.05728085 -109.85055542 27.00443649 C-111.89815534 26.98594741 -113.94578854 26.97081934 -115.99343872 26.95915604 C-118.86818265 26.94219955 -121.74257454 26.91314206 -124.6171875 26.88134766 C-125.45804398 26.87918747 -126.29890045 26.87702728 -127.16523743 26.87480164 C-132.43429971 26.80067426 -136.99389321 26.01941597 -142.0625 24.5625 C-141.7325 23.2425 -141.4025 21.9225 -141.0625 20.5625 C-142.17625 20.624375 -143.29 20.68625 -144.4375 20.75 C-149.57077698 20.75916657 -154.3185589 19.4847661 -159.0625 17.5625 C-159.7225 16.9025 -160.3825 16.2425 -161.0625 15.5625 C-161 13.0625 -161 13.0625 -160.0625 10.5625 C-157.5 9.25 -157.5 9.25 -155.0625 8.5625 C-157.07243705 6.55256295 -158.65461232 5.66309081 -161.1875 4.4375 C-162.27417969 3.90769531 -162.27417969 3.90769531 -163.3828125 3.3671875 C-163.93710938 3.10164063 -164.49140625 2.83609375 -165.0625 2.5625 C-164.7325 1.9025 -164.4025 1.2425 -164.0625 0.5625 C-155.73084541 -1.75833708 -147.05554939 -1.7111994 -138.47875977 -1.64868164 C-137.17806046 -1.6473674 -135.87736115 -1.64605316 -134.5372467 -1.6446991 C-131.73488369 -1.64179235 -128.93264007 -1.6326386 -126.13031197 -1.61839485 C-121.69632783 -1.59592645 -117.26238642 -1.58800634 -112.82835388 -1.58189392 C-105.81877313 -1.57056636 -98.80925769 -1.54987363 -91.79971308 -1.52499622 C-79.23160742 -1.48047606 -66.66347819 -1.44744824 -54.09531444 -1.42475218 C-49.6894231 -1.41636303 -45.28359595 -1.40235903 -40.87773621 -1.38377964 C-38.80009846 -1.37569231 -36.72246879 -1.36986087 -34.64482117 -1.36500549 C-32.11490681 -1.35898412 -29.58499745 -1.34931173 -27.05511475 -1.33529663 C-25.9380867 -1.33378098 -24.82105865 -1.33226532 -23.67018127 -1.33070374 C-22.21823034 -1.32542459 -22.21823034 -1.32542459 -20.73694706 -1.3200388 C-3.75510437 -2.06587809 -3.75510437 -2.06587809 0 0 Z " fill="#15130B" transform="translate(256.0625,93.4375)"/>
<path d="M0 0 C1.02528809 0.0714624 2.05057617 0.1429248 3.10693359 0.21655273 C15.95346302 1.05211994 28.75551659 1.11725936 41.625 1.0625 C43.71093641 1.05746856 45.79687401 1.0529086 47.8828125 1.04882812 C52.92190524 1.03796746 57.96093888 1.02079613 63 1 C58.60346746 3.31182984 54.94324911 3.56383096 50 4 C54.95 4.33 59.9 4.66 65 5 C65 5.33 65 5.66 65 6 C10.78489703 7.18993135 10.78489703 7.18993135 0 0 Z " fill="#EDD52A" transform="translate(193,270)"/>
<path d="M0 0 C-0.33 0.66 -0.66 1.32 -1 2 C-8.82072074 4.48671566 -17.11599257 5.35739025 -25.25 6.1875 C-26.0644458 6.27128906 -26.8788916 6.35507812 -27.71801758 6.44140625 C-33.49017464 6.98121898 -39.20487442 7.08973395 -45 7 C-45 6.01 -45 5.02 -45 4 C-41.04 3.34 -37.08 2.68 -33 2 C-33 1.67 -33 1.34 -33 1 C-28.43755286 0.83186513 -23.87503444 0.66574745 -19.3125 0.5 C-18.01892578 0.45230469 -16.72535156 0.40460938 -15.39257812 0.35546875 C-13.52182617 0.28779297 -13.52182617 0.28779297 -11.61328125 0.21875 C-9.89298706 0.1559082 -9.89298706 0.1559082 -8.13793945 0.09179688 C-5.42259389 0.01236251 -2.71620292 -0.01779658 0 0 Z " fill="#160F08" transform="translate(268,275)"/>
<path d="M0 0 C0.66 0.33 1.32 0.66 2 1 C-7.82087374 6.43036548 -19.58692347 11.72065897 -31 12 C-32.21171875 12.03867187 -33.4234375 12.07734375 -34.671875 12.1171875 C-46.32802023 12.34598708 -46.32802023 12.34598708 -50 10 C-43.86614087 8.48128007 -37.79176283 7.71917307 -31.5 7.3125 C-30.44039062 7.24011108 -30.44039062 7.24011108 -29.359375 7.16625977 C-24.2526285 6.87368575 -24.2526285 6.87368575 -22 8 C-14.94701205 6.35059249 -8.18195298 3.8681732 -1.70703125 0.63671875 C-1.14371094 0.42660156 -0.58039063 0.21648437 0 0 Z " fill="#F6DA29" transform="translate(281,255)"/>
<path d="M0 0 C0 3 0 3 -1.984375 5.3828125 C-16.99092897 20.26219229 -38.23627602 36.58485787 -60 39 C-59 37 -59 37 -56.83984375 36.2109375 C-55.88207031 35.93507813 -54.92429688 35.65921875 -53.9375 35.375 C-32.82646958 28.55451325 -15.52169263 15.52169263 0 0 Z " fill="#EEDB31" transform="translate(297,298)"/>
<path d="M0 0 C9.76401969 -0.24059186 19.40668168 0.67223927 29.125 1.5 C30.8619478 1.64490774 32.59892679 1.78944213 34.3359375 1.93359375 C38.55766374 2.28475711 42.77893519 2.64097714 47 3 C45 5 45 5 42.3984375 5.1953125 C41.40070313 5.17210937 40.40296875 5.14890625 39.375 5.125 C37.87066406 5.09792969 37.87066406 5.09792969 36.3359375 5.0703125 C35.56507813 5.04710937 34.79421875 5.02390625 34 5 C34 5.33 34 5.66 34 6 C26.44149033 6.28254155 19.36895874 5.46408713 11.9375 4.125 C10.89400391 3.95097656 9.85050781 3.77695313 8.77539062 3.59765625 C7.78603516 3.42363281 6.79667969 3.24960938 5.77734375 3.0703125 C4.88265381 2.91320801 3.98796387 2.75610352 3.06616211 2.59423828 C2.38432861 2.39813965 1.70249512 2.20204102 1 2 C0.67 1.34 0.34 0.68 0 0 Z " fill="#F3CE28" transform="translate(175,251)"/>
<path d="M0 0 C0 3 0 3 -1.96875 5.26171875 C-2.8040625 6.06222656 -3.639375 6.86273438 -4.5 7.6875 C-5.3353125 8.49574219 -6.170625 9.30398437 -7.03125 10.13671875 C-8.00578125 11.05904297 -8.00578125 11.05904297 -9 12 C-7.95134766 12.08564209 -6.90269531 12.17128418 -5.82226562 12.25952148 C-1.90089939 12.58023087 2.02027873 12.90319278 5.94140625 13.22680664 C7.63276264 13.36608532 9.32416826 13.50476762 11.015625 13.64282227 C13.45846796 13.8423115 15.90112097 14.04400383 18.34375 14.24609375 C19.08991577 14.3065538 19.83608154 14.36701385 20.6048584 14.42930603 C25.4229462 14.8306449 30.20600023 15.37232711 35 16 C35 16.33 35 16.66 35 17 C33.02091515 17.02752977 31.04171269 17.04663002 29.0625 17.0625 C27.96035156 17.07410156 26.85820312 17.08570313 25.72265625 17.09765625 C23.04765265 17.02748302 20.57595455 16.85864947 17.9375 16.53125 C11.62509914 15.77563919 5.28717079 15.64341702 -1.0625 15.4375 C-2.30966797 15.39431641 -3.55683594 15.35113281 -4.84179688 15.30664062 C-7.89444091 15.20137704 -10.94715523 15.09924059 -14 15 C-10.66883385 11.04625813 -7.31571444 7.18958143 -3.625 3.5625 C-2.93664062 2.88316406 -2.24828125 2.20382813 -1.5390625 1.50390625 C-1.03117188 1.00761719 -0.52328125 0.51132813 0 0 Z " fill="#F4DB29" transform="translate(156,230)"/>
<path d="M0 0 C12.69738235 0.6912615 25.34184863 1.79754563 38 3 C38 3.33 38 3.66 38 4 C37.04738281 4.06058594 36.09476563 4.12117188 35.11328125 4.18359375 C33.85902344 4.26738281 32.60476562 4.35117187 31.3125 4.4375 C30.07113281 4.51871094 28.82976562 4.59992188 27.55078125 4.68359375 C24.61819663 4.94491317 21.86558383 5.34798379 19 6 C19 6.33 19 6.66 19 7 C13.72 7 8.44 7 3 7 C3 6.67 3 6.34 3 6 C5.97 5.01 8.94 4.02 12 3 C6.06 2.01 6.06 2.01 0 1 C0 0.67 0 0.34 0 0 Z " fill="#050304" transform="translate(206,274)"/>
<path d="M0 0 C0.66 0 1.32 0 2 0 C0.52278578 3.45201639 -1.43794001 5.64961936 -4.125 8.25 C-4.84945313 8.95640625 -5.57390625 9.6628125 -6.3203125 10.390625 C-6.87460937 10.92171875 -7.42890625 11.4528125 -8 12 C-7.67 12.66 -7.34 13.32 -7 14 C-5.02 12.35 -3.04 10.7 -1 9 C-2.51374725 12.57276904 -4.61894388 14.85680371 -7.375 17.5625 C-8.14585937 18.32691406 -8.91671875 19.09132813 -9.7109375 19.87890625 C-11.72713289 21.74715556 -13.76606163 23.40360112 -16 25 C-16.66 24.67 -17.32 24.34 -18 24 C-16.35 22.02 -14.7 20.04 -13 18 C-16.465 20.475 -16.465 20.475 -20 23 C-20 20 -20 20 -18.63671875 18.5625 C-17.99347656 18.046875 -17.35023438 17.53125 -16.6875 17 C-12.96715449 13.8863775 -9.48918688 10.61587186 -6.0625 7.1875 C-5.5780542 6.70732422 -5.0936084 6.22714844 -4.59448242 5.73242188 C-1.96659399 3.11524252 -1.96659399 3.11524252 0 0 Z " fill="#0E0A07" transform="translate(299,287)"/>
<path d="M0 0 C15.18 0.33 30.36 0.66 46 1 C38.6993732 5.86708453 27.57680106 5.35571986 19 5 C20.32 4.34 21.64 3.68 23 3 C21.75863281 2.93941406 20.51726562 2.87882812 19.23828125 2.81640625 C17.59634423 2.73196377 15.95441768 2.64731764 14.3125 2.5625 C13.49587891 2.52318359 12.67925781 2.48386719 11.83789062 2.44335938 C7.80344189 2.23101997 3.94252691 1.95552078 0 1 C0 0.67 0 0.34 0 0 Z " fill="#080404" transform="translate(212,259)"/>
<path d="M0 0 C0 0.99 0 1.98 0 3 C-2.10016623 4.17441535 -4.20458755 5.33964012 -6.3125 6.5 C-6.90740234 6.83386719 -7.50230469 7.16773438 -8.11523438 7.51171875 C-10.95828844 9.06825114 -12.70660988 10 -16 10 C-16.33 11.65 -16.66 13.3 -17 15 C-18.625 15.6875 -18.625 15.6875 -21 16 C-24.25 14.5625 -24.25 14.5625 -27 13 C-24.59433572 10.59433572 -22.87087742 10.22120742 -19.625 9.25 C-9.06015426 6.00273745 -9.06015426 6.00273745 0 0 Z " fill="#F3CB27" transform="translate(284,258)"/>
<path d="M0 0 C2.72869407 0.03287583 5.2966618 0.56397771 8 1 C8.33 2.65 8.66 4.3 9 6 C-0.57 5.67 -10.14 5.34 -20 5 C-20 4.67 -20 4.34 -20 4 C-18.08574219 3.81824219 -18.08574219 3.81824219 -16.1328125 3.6328125 C-14.46349474 3.46400509 -12.79422635 3.2947089 -11.125 3.125 C-10.28324219 3.04636719 -9.44148437 2.96773438 -8.57421875 2.88671875 C-7.76855469 2.80292969 -6.96289062 2.71914063 -6.1328125 2.6328125 C-5.01737061 2.52283936 -5.01737061 2.52283936 -3.87939453 2.41064453 C-1.76617496 2.12608718 -1.76617496 2.12608718 0 0 Z " fill="#EFAB20" transform="translate(254,270)"/>
<path d="M0 0 C-4.29502335 2.42333886 -8.1329547 2.57055483 -13 3 C-8.05 3.33 -3.1 3.66 2 4 C2 4.33 2 4.66 2 5 C-7.9 5 -17.8 5 -28 5 C-28 4.01 -28 3.02 -28 2 C-24.4587501 1.66213906 -20.91694184 1.33052169 -17.375 1 C-16.37597656 0.90460938 -15.37695312 0.80921875 -14.34765625 0.7109375 C-9.54861994 0.26599374 -4.82618926 -0.13177309 0 0 Z " fill="#FCE82C" transform="translate(256,271)"/>
<path d="M0 0 C0.74886475 0.00523682 1.49772949 0.01047363 2.26928711 0.01586914 C3.07817383 0.0190918 3.88706055 0.02231445 4.72045898 0.02563477 C5.5705957 0.03401367 6.42073242 0.04239258 7.29663086 0.05102539 C8.15063477 0.05553711 9.00463867 0.06004883 9.88452148 0.06469727 C12.00108749 0.07652166 14.11761771 0.0944577 16.23413086 0.11352539 C16.23413086 0.44352539 16.23413086 0.77352539 16.23413086 1.11352539 C18.70913086 1.60852539 18.70913086 1.60852539 21.23413086 2.11352539 C21.23413086 2.44352539 21.23413086 2.77352539 21.23413086 3.11352539 C9.02413086 3.11352539 -3.18586914 3.11352539 -15.76586914 3.11352539 C-15.76586914 2.78352539 -15.76586914 2.45352539 -15.76586914 2.11352539 C-14.8390332 2.05293945 -13.91219727 1.99235352 -12.95727539 1.92993164 C-11.1609668 1.80424805 -11.1609668 1.80424805 -9.32836914 1.67602539 C-7.53592773 1.55420898 -7.53592773 1.55420898 -5.70727539 1.42993164 C-2.90904165 1.12892642 -2.47139143 0.15888249 0 0 Z " fill="#231B0B" transform="translate(181.765869140625,91.886474609375)"/>
<path d="M0 0 C8.79705092 -0.38064163 17.31163005 0.79268308 26 2 C26 2.33 26 2.66 26 3 C17.49716499 4.0148545 9.31456366 4.45136273 1 2 C0.67 1.34 0.34 0.68 0 0 Z " fill="#E4CC28" transform="translate(175,251)"/>
<path d="M0 0 C0.66 0 1.32 0 2 0 C1.35330586 1.34313399 0.68096422 2.67391178 0 4 C-0.45375 4.886875 -0.9075 5.77375 -1.375 6.6875 C-3 9 -3 9 -5 9.6875 C-5.66 9.790625 -6.32 9.89375 -7 10 C-7.99 10.66 -8.98 11.32 -10 12 C-12.1875 11.625 -12.1875 11.625 -14 11 C-12.66666667 9.66666667 -11.33333333 8.33333333 -10 7 C-9.525625 6.46375 -9.05125 5.9275 -8.5625 5.375 C-6.56718759 3.61912508 -4.46623509 2.94855196 -2 2 C-1.34 1.34 -0.68 0.68 0 0 Z " fill="#1B160D" transform="translate(284,305)"/>
<path d="M0 0 C-0.37459124 2.42201461 -0.64347591 3.67977993 -2.49609375 5.34375 C-7.7043856 8.4456703 -13.12399636 11.39270948 -19 13 C-19.99 12.67 -20.98 12.34 -22 12 C-20.5437455 11.32880451 -19.08492133 10.66318193 -17.625 10 C-16.81289063 9.62875 -16.00078125 9.2575 -15.1640625 8.875 C-13 8 -13 8 -11 8 C-11 7.34 -11 6.68 -11 6 C-9.1015625 4.4921875 -9.1015625 4.4921875 -6.625 2.875 C-5.81289063 2.33617187 -5.00078125 1.79734375 -4.1640625 1.2421875 C-2 0 -2 0 0 0 Z " fill="#0F0906" transform="translate(285,255)"/>
<path d="M0 0 C0.73605469 0.34933594 1.47210938 0.69867188 2.23046875 1.05859375 C3.69419922 1.74115234 3.69419922 1.74115234 5.1875 2.4375 C6.15042969 2.88996094 7.11335938 3.34242187 8.10546875 3.80859375 C10.76631586 4.90381422 13.16784755 5.54954796 16 6 C16 6.33 16 6.66 16 7 C13.03 7.66 10.06 8.32 7 9 C6.67 10.65 6.34 12.3 6 14 C8.475 15.98 8.475 15.98 11 18 C6.25 17.25 6.25 17.25 4 15 C3.74436449 11.16546731 4.12183503 7.73220113 5 4 C2.525 3.01 2.525 3.01 0 2 C0 1.34 0 0.68 0 0 Z " fill="#F5DA2B" transform="translate(90,95)"/>
<path d="M0 0 C0.99 0.66 1.98 1.32 3 2 C3.99 1.34 4.98 0.68 6 0 C6.99 0.33 7.98 0.66 9 1 C5.68188522 3.02627958 2.34657796 5.02111034 -1 7 C-2.11375 7.66 -3.2275 8.32 -4.375 9 C-7 10 -7 10 -9.1640625 9.0625 C-9.76992187 8.711875 -10.37578125 8.36125 -11 8 C-9.54462432 7.16151196 -8.08559627 6.32936066 -6.625 5.5 C-5.40683594 4.80390625 -5.40683594 4.80390625 -4.1640625 4.09375 C-2 3 -2 3 0 3 C0 2.01 0 1.02 0 0 Z " fill="#1A130A" transform="translate(261,320)"/>
<path d="M0 0 C1.32 0.33 2.64 0.66 4 1 C3.67 1.66 3.34 2.32 3 3 C5.31 3.33 7.62 3.66 10 4 C10 4.33 10 4.66 10 5 C8.35 5.33 6.7 5.66 5 6 C5 6.33 5 6.66 5 7 C-1.93 6.67 -8.86 6.34 -16 6 C-16 5.67 -16 5.34 -16 5 C-14.08416353 4.8041991 -12.16727461 4.61867786 -10.25 4.4375 C-8.64898437 4.28087891 -8.64898437 4.28087891 -7.015625 4.12109375 C-4.35858796 4.01439926 -2.50039428 4.18069605 0 5 C0 3.68 0 2.36 0 1 C0 0.67 0 0.34 0 0 Z " fill="#0A0807" transform="translate(201,273)"/>
<path d="M0 0 C0.89267578 0.00322266 1.78535156 0.00644531 2.70507812 0.00976562 C4.09823242 0.02233398 4.09823242 0.02233398 5.51953125 0.03515625 C6.45990234 0.03966797 7.40027344 0.04417969 8.36914062 0.04882812 C10.69016837 0.06060999 13.01106769 0.07706067 15.33203125 0.09765625 C15.66203125 1.08765625 15.99203125 2.07765625 16.33203125 3.09765625 C8.41203125 3.09765625 0.49203125 3.09765625 -7.66796875 3.09765625 C-7.66796875 2.43765625 -7.66796875 1.77765625 -7.66796875 1.09765625 C-4.78531726 0.13677242 -2.99134604 -0.01905316 0 0 Z " fill="#211A0B" transform="translate(218.66796875,92.90234375)"/>
<path d="M0 0 C0.33 0.66 0.66 1.32 1 2 C-0.65 2.33 -2.3 2.66 -4 3 C-4 3.33 -4 3.66 -4 4 C-9.28 4 -14.56 4 -20 4 C-20 3.67 -20 3.34 -20 3 C-13.16914355 0.55833216 -7.2484945 -0.41640288 0 0 Z " fill="#0D0B08" transform="translate(229,277)"/>
<path d="M0 0 C6.42200129 -0.29190915 12.75415744 0.46460319 19 2 C19.66 2.66 20.32 3.32 21 4 C13.64657821 4.20177072 7.05112439 4.21211746 0 2 C0 1.34 0 0.68 0 0 Z " fill="#0E0906" transform="translate(200,250)"/>
<path d="M0 0 C3.30727955 3.30727955 2.87398908 7.47506248 3 12 C2.79651092 16.68024891 2.43681798 21.33612798 2 26 C1.67 26 1.34 26 1 26 C-0.15664737 20.51730931 -0.11416255 15.19660726 -0.0625 9.625 C-0.05798828 8.69816406 -0.05347656 7.77132812 -0.04882812 6.81640625 C-0.03711574 4.54420291 -0.02071372 2.27213612 0 0 Z " fill="#090704" transform="translate(371,169)"/>
<path d="M0 0 C3.19249477 2.96647745 5.4592987 6.04963636 7.75 9.75 C8.36359375 10.73484375 8.9771875 11.7196875 9.609375 12.734375 C10.29773438 13.85585938 10.29773438 13.85585938 11 15 C10.01 15.33 9.02 15.66 8 16 C7.566875 15.21625 7.13375 14.4325 6.6875 13.625 C5.10779753 10.78301625 5.10779753 10.78301625 2 9 C2 8.34 2 7.68 2 7 C1.01 6.67 0.02 6.34 -1 6 C-0.67 4.02 -0.34 2.04 0 0 Z " fill="#0E0C06" transform="translate(28,283)"/>
<path d="M0 0 C-1 2 -1 2 -2.71484375 2.6328125 C-8.54821499 3.92456079 -14.03517796 4.2241478 -20 4 C-20 3.34 -20 2.68 -20 2 C-17.60468244 1.66254646 -15.20885732 1.3299171 -12.8125 1 C-11.80219727 0.85691406 -11.80219727 0.85691406 -10.77148438 0.7109375 C-7.15335423 0.21675387 -3.65203599 -0.11346131 0 0 Z " fill="#0A0503" transform="translate(268,275)"/>
<path d="M0 0 C6.27 0 12.54 0 19 0 C19 0.33 19 0.66 19 1 C17.02 1 15.04 1 13 1 C13 1.66 13 2.32 13 3 C14.65 3 16.3 3 18 3 C18 3.33 18 3.66 18 4 C12.06 3.67 6.12 3.34 0 3 C0 2.01 0 1.02 0 0 Z " fill="#51350F" transform="translate(235,276)"/>
<path d="M0 0 C0 0.66 0 1.32 0 2 C0.99 2 1.98 2 3 2 C2.67 2.99 2.34 3.98 2 5 C0.68 5 -0.64 5 -2 5 C-4.73219193 6.91859167 -4.73219193 6.91859167 -7 9 C-7.33 8.01 -7.66 7.02 -8 6 C-7.0479279 4.99403703 -6.08812654 3.99538437 -5.125 3 C-4.59132813 2.443125 -4.05765625 1.88625 -3.5078125 1.3125 C-2 0 -2 0 0 0 Z " fill="#2B250F" transform="translate(298,293)"/>
<path d="M0 0 C0.33 0 0.66 0 1 0 C1.50643553 2.22771342 2.0048962 4.45724076 2.5 6.6875 C2.7784375 7.92886719 3.056875 9.17023438 3.34375 10.44921875 C3.89354126 13.42398218 4.13795705 15.99368602 4 19 C1.37613513 15.93882432 1 15.26826873 1 11 C0.01 11 -0.98 11 -2 11 C-1.67 10.34 -1.34 9.68 -1 9 C-0.77532169 7.46331135 -0.59203195 5.92031946 -0.4375 4.375 C-0.35371094 3.55773437 -0.26992187 2.74046875 -0.18359375 1.8984375 C-0.12300781 1.27195313 -0.06242188 0.64546875 0 0 Z " fill="#0C0A06" transform="translate(5,218)"/>
<path d="M0 0 C0.80566406 0.00322266 1.61132812 0.00644531 2.44140625 0.00976562 C3.70404297 0.02233398 3.70404297 0.02233398 4.9921875 0.03515625 C5.84167969 0.03966797 6.69117188 0.04417969 7.56640625 0.04882812 C9.66669659 0.06062751 11.7669508 0.07856319 13.8671875 0.09765625 C13.8671875 0.42765625 13.8671875 0.75765625 13.8671875 1.09765625 C13.01253906 1.14664062 12.15789062 1.195625 11.27734375 1.24609375 C10.17261719 1.32085937 9.06789062 1.395625 7.9296875 1.47265625 C6.82753906 1.54226563 5.72539062 1.611875 4.58984375 1.68359375 C3.69136719 1.82023437 2.79289063 1.956875 1.8671875 2.09765625 C1.5371875 2.75765625 1.2071875 3.41765625 0.8671875 4.09765625 C-1.1128125 4.09765625 -3.0928125 4.09765625 -5.1328125 4.09765625 C-5.4628125 3.10765625 -5.7928125 2.11765625 -6.1328125 1.09765625 C-3.8362755 -0.05061225 -2.54968083 -0.0179555 0 0 Z " fill="#E4B023" transform="translate(227.1328125,271.90234375)"/>
<path d="M0 0 C0.33 0 0.66 0 1 0 C1.10371911 9.72654773 1.04518445 19.31337984 0 29 C-0.33 29 -0.66 29 -1 29 C-1.19390729 26.68802845 -1.37996367 24.3753971 -1.5625 22.0625 C-1.71912109 20.13083984 -1.71912109 20.13083984 -1.87890625 18.16015625 C-1.91886719 17.11730469 -1.95882813 16.07445312 -2 15 C-1.67 14.67 -1.34 14.34 -1 14 C-0.76472227 11.65012738 -0.58613583 9.29443961 -0.4375 6.9375 C-0.35371094 5.64714844 -0.26992188 4.35679687 -0.18359375 3.02734375 C-0.12300781 2.02832031 -0.06242187 1.02929688 0 0 Z " fill="#2C2414" transform="translate(373,181)"/>
<path d="M0 0 C1 2 1 2 0.375 4.8125 C-1.18131396 8.42031873 -3.09336178 10.3993237 -6 13 C-6.66 12.67 -7.32 12.34 -8 12 C-5.36 8.04 -2.72 4.08 0 0 Z " fill="#100C07" transform="translate(318,262)"/>
<path d="M0 0 C0.66 0.33 1.32 0.66 2 1 C-0.97 4.63 -3.94 8.26 -7 12 C-7.33 11.01 -7.66 10.02 -8 9 C-5.36 6.03 -2.72 3.06 0 0 Z " fill="#100D07" transform="translate(46,66)"/>
<path d="M0 0 C-1.95245185 1.19714555 -3.91214997 2.38248074 -5.875 3.5625 C-6.96554688 4.22378906 -8.05609375 4.88507812 -9.1796875 5.56640625 C-10.57574219 6.27603516 -10.57574219 6.27603516 -12 7 C-12.66 6.67 -13.32 6.34 -14 6 C-10.04805212 1.59205813 -6.01919869 -1.90694441 0 0 Z " fill="#0F0D07" transform="translate(100,26)"/>
<path d="M0 0 C1.98 0 3.96 0 6 0 C5.34 0.66 4.68 1.32 4 2 C7.26545761 3.88391785 10.28111761 4.49287967 14 5 C14 5.33 14 5.66 14 6 C7.92671312 6.50610724 4.22771463 5.04157942 -1 2 C-0.67 1.34 -0.34 0.68 0 0 Z " fill="#0D0906" transform="translate(92,94)"/>
<path d="M0 0 C0.66 0 1.32 0 2 0 C1.4409112 3.24271506 0.5867822 4.93057424 -2 7 C-2.66 7 -3.32 7 -4 7 C-4.33 7.99 -4.66 8.98 -5 10 C-7.0625 10.6875 -7.0625 10.6875 -9 11 C-8.60167969 10.54109375 -8.20335937 10.0821875 -7.79296875 9.609375 C-4.39984291 5.68325173 -4.39984291 5.68325173 -1.25 1.5625 C-0.8375 1.046875 -0.425 0.53125 0 0 Z " fill="#120703" transform="translate(323,313)"/>
<path d="M0 0 C0.33 0 0.66 0 1 0 C0.88544319 1.91731918 0.75793742 3.8338675 0.625 5.75 C0.55539062 6.81734375 0.48578125 7.8846875 0.4140625 8.984375 C0.0271777 11.80206432 -0.55686166 13.5830366 -2 16 C-2.92844389 11.66726186 -2.92844389 8.33273814 -2 4 C-1.34 4 -0.68 4 0 4 C0 2.68 0 1.36 0 0 Z " fill="#24190E" transform="translate(371,213)"/>
<path d="M0 0 C1.43836751 0.11458693 2.87570966 0.24209116 4.3125 0.375 C5.51326172 0.47941406 5.51326172 0.47941406 6.73828125 0.5859375 C9 1 9 1 12 3 C11.67 3.66 11.34 4.32 11 5 C9.35153231 4.55123384 7.70626545 4.09069512 6.0625 3.625 C5.14597656 3.36976562 4.22945312 3.11453125 3.28515625 2.8515625 C1 2 1 2 0 0 Z " fill="#0F0D07" transform="translate(240,10)"/>
<path d="M0 0 C4.95 0 9.9 0 15 0 C15 0.99 15 1.98 15 3 C9.99109914 2.38487182 4.99367864 1.7282448 0 1 C0 0.67 0 0.34 0 0 Z " fill="#E7B722" transform="translate(184,279)"/>
<path d="M0 0 C-2.49374292 2.49374292 -3.50454345 2.62814292 -7 3 C-10.01840479 2.78729362 -13.00455828 2.42419109 -16 2 C-16 1.67 -16 1.34 -16 1 C-10.61509359 0.08342019 -5.45769811 -0.11138159 0 0 Z " fill="#0E0805" transform="translate(211,373)"/>
<path d="M0 0 C3.26008643 3.16952847 6.22237877 6.39937989 9 10 C5.54537888 9.74410214 4.72618453 8.71373837 2.25 6.125 C0 3 0 3 0 0 Z " fill="#0C0B06" transform="translate(47,309)"/>
<path d="M0 0 C0.66 0 1.32 0 2 0 C1.57405412 1.44096586 1.13373367 2.87768712 0.6875 4.3125 C0.44386719 5.11300781 0.20023438 5.91351563 -0.05078125 6.73828125 C-1.04182023 9.09964573 -2.08074943 10.33879993 -4 12 C-3.45660208 7.43545749 -2.20536179 4.0271824 0 0 Z " fill="#0F0C07" transform="translate(21,102)"/>
<path d="M0 0 C-1.625 2.0625 -1.625 2.0625 -4 4 C-7.25 3.75 -7.25 3.75 -10 3 C-9.67 2.01 -9.34 1.02 -9 0 C-5.52176885 -1.15941038 -3.54104422 -0.70820884 0 0 Z " fill="#251C0C" transform="translate(267,265)"/>
<path d="M0 0 C0.66 0 1.32 0 2 0 C0.68775452 3.93673644 -0.91910327 6.22719294 -4 9 C-3.4739075 5.21213403 -2.61896089 2.82847776 0 0 Z " fill="#0D0A06" transform="translate(34,81)"/>
<path d="M0 0 C8.03571429 0.80357143 8.03571429 0.80357143 12 3 C10.56344146 3.08131463 9.1255517 3.13933559 7.6875 3.1875 C6.48673828 3.23970703 6.48673828 3.23970703 5.26171875 3.29296875 C2.52148416 2.93801608 1.70828921 2.10633718 0 0 Z " fill="#0C0B06" transform="translate(143,369)"/>
<path d="M0 0 C0.66 0.66 1.32 1.32 2 2 C-3.41538462 3.23076923 -3.41538462 3.23076923 -6.375 2.0625 C-6.91125 1.711875 -7.4475 1.36125 -8 1 C-5.23749964 -0.38125018 -3.05268901 -0.19079306 0 0 Z " fill="#E5C527" transform="translate(239,264)"/>
<path d="M0 0 C2.64 1.98 5.28 3.96 8 6 C7.34 6.66 6.68 7.32 6 8 C4 6.625 4 6.625 2 5 C2 4.34 2 3.68 2 3 C1.34 3 0.68 3 0 3 C0 2.01 0 1.02 0 0 Z " fill="#0D0A05" transform="translate(57,320)"/>
<path d="M0 0 C0 0.99 0 1.98 0 3 C-3.63 2.67 -7.26 2.34 -11 2 C-11 1.67 -11 1.34 -11 1 C-3.375 0 -3.375 0 0 0 Z " fill="#E1B623" transform="translate(252,262)"/>
<path d="M0 0 C2.97851562 0.53710938 2.97851562 0.53710938 5.95703125 1.07421875 C5.95703125 1.40421875 5.95703125 1.73421875 5.95703125 2.07421875 C2.32703125 2.40421875 -1.30296875 2.73421875 -5.04296875 3.07421875 C-2.04296875 0.07421875 -2.04296875 0.07421875 0 0 Z " fill="#1F1910" transform="translate(214.04296875,371.92578125)"/>
<path d="M0 0 C3.45925163 1.2491742 6.14693203 2.67527795 9 5 C5.26512223 4.5020163 3.18762365 4.12508244 0 2 C0 1.34 0 0.68 0 0 Z " fill="#0D0B06" transform="translate(89,346)"/>
<path d="M0 0 C0 0.66 0 1.32 0 2 C0.66 2.33 1.32 2.66 2 3 C-4.625 3.25 -4.625 3.25 -8 1 C-2.25 0 -2.25 0 0 0 Z " fill="#F6D829" transform="translate(207,247)"/>
<path d="M0 0 C0.33 0 0.66 0 1 0 C1 1.65 1 3.3 1 5 C1.66 5 2.32 5 3 5 C2.67 7.64 2.34 10.28 2 13 C1.67 13 1.34 13 1 13 C0.67 8.71 0.34 4.42 0 0 Z " fill="#221B0E" transform="translate(2,205)"/>
<path d="M0 0 C3.25543229 0.34879632 4.01873107 1.02133261 6.25 3.5625 C6.8275 4.366875 7.405 5.17125 8 6 C4.08597051 4.73058503 2.20927127 3.48832306 0 0 Z " fill="#100D06" transform="translate(304,44)"/>
<path d="M0 0 C0.99 0.33 1.98 0.66 3 1 C1.02 1.33 -0.96 1.66 -3 2 C-2.01 1.34 -1.02 0.68 0 0 Z " fill="#000000" transform="translate(238,370)"/>
<path d="M0 0 C4 1 4 1 4 1 Z " fill="#000000" transform="translate(163,376)"/>
<path d="M0 0 C4 1 4 1 4 1 Z " fill="#000000" transform="translate(231,372)"/>
<path d="M0 0 C1 4 1 4 1 4 Z " fill="#000000" transform="translate(4,142)"/>
<path d="M0 0 C3 1 3 1 3 1 Z " fill="#1C0000" transform="translate(176,377)"/>
<path d="M0 0 C3 1 3 1 3 1 Z " fill="#000000" transform="translate(100,356)"/>
<path d="M0 0 C0.66 0 1.32 0 2 0 C1.67 0.66 1.34 1.32 1 2 C0.67 1.34 0.34 0.68 0 0 Z " fill="#000000" transform="translate(361,117)"/>
<path d="M0 0 C2 1 2 1 2 1 Z " fill="#000000" transform="translate(197,377)"/>
<path d="M0 0 C2 1 2 1 2 1 Z " fill="#4A1F00" transform="translate(209,376)"/>
<path d="M0 0 C2 1 2 1 2 1 Z " fill="#000000" transform="translate(259,363)"/>
<path d="M0 0 C2 1 2 1 2 1 Z " fill="#000000" transform="translate(108,360)"/>
<path d="M0 0 C2 1 2 1 2 1 Z " fill="#000000" transform="translate(84,346)"/>
<path d="M0 0 C2 1 2 1 2 1 Z " fill="#000000" transform="translate(309,331)"/>
<path d="" fill="#000000" transform="translate(0,0)"/>
<path d="" fill="#000000" transform="translate(0,0)"/>
<path d="" fill="#000000" transform="translate(0,0)"/>
<path d="" fill="#000000" transform="translate(0,0)"/>
<path d="" fill="#000000" transform="translate(0,0)"/>
<path d="" fill="#000000" transform="translate(0,0)"/>
<path d="M0 0 C2 1 2 1 2 1 Z " fill="#000000" transform="translate(99,21)"/>
<path d="M0 0 C2 1 2 1 2 1 Z " fill="#000000" transform="translate(116,13)"/>
<path d="M0 0 C2 1 2 1 2 1 Z " fill="#000000" transform="translate(123,6)"/>
<path d="M0 0 C2 1 2 1 2 1 Z " fill="#000000" transform="translate(141,5)"/>
<path d="M0 0 C2 1 2 1 2 1 Z " fill="#000000" transform="translate(201,0)"/>
<path d="" fill="#000000" transform="translate(0,0)"/>
<path d="" fill="#000000" transform="translate(0,0)"/>
<path d="" fill="#000000" transform="translate(0,0)"/>
<path d="" fill="#000000" transform="translate(0,0)"/>
<path d="" fill="#000000" transform="translate(0,0)"/>
<path d="" fill="#000000" transform="translate(0,0)"/>
<path d="" fill="#000000" transform="translate(0,0)"/>
<path d="" fill="#000000" transform="translate(0,0)"/>
<path d="" fill="#000000" transform="translate(0,0)"/>
<path d="" fill="#000000" transform="translate(0,0)"/>
<path d="" fill="#000000" transform="translate(0,0)"/>
<path d="" fill="#000000" transform="translate(0,0)"/>
<path d="" fill="#000000" transform="translate(0,0)"/>
<path d="" fill="#000000" transform="translate(0,0)"/>
<path d="" fill="#000000" transform="translate(0,0)"/>
<path d="" fill="#000000" transform="translate(0,0)"/>
<path d="" fill="#000000" transform="translate(0,0)"/>
<path d="" fill="#000000" transform="translate(0,0)"/>
<path d="" fill="#000000" transform="translate(0,0)"/>
<path d="" fill="#000000" transform="translate(0,0)"/>
<path d="" fill="#000000" transform="translate(0,0)"/>
<path d="" fill="#000000" transform="translate(0,0)"/>
<path d="" fill="#000000" transform="translate(0,0)"/>
<path d="" fill="#000000" transform="translate(0,0)"/>
<path d="" fill="#333300" transform="translate(0,0)"/>
<path d="" fill="#000000" transform="translate(0,0)"/>
<path d="" fill="#000000" transform="translate(0,0)"/>
<path d="" fill="#000000" transform="translate(0,0)"/>
<path d="" fill="#000000" transform="translate(0,0)"/>
<path d="" fill="#000000" transform="translate(0,0)"/>
<path d="" fill="#000000" transform="translate(0,0)"/>
<path d="" fill="#000000" transform="translate(0,0)"/>
<path d="" fill="#000000" transform="translate(0,0)"/>
<path d="" fill="#000000" transform="translate(0,0)"/>
<path d="" fill="#000000" transform="translate(0,0)"/>
<path d="" fill="#000000" transform="translate(0,0)"/>
<path d="" fill="#000000" transform="translate(0,0)"/>
<path d="" fill="#000000" transform="translate(0,0)"/>
<path d="" fill="#000000" transform="translate(0,0)"/>
<path d="" fill="#000000" transform="translate(0,0)"/>
<path d="" fill="#000000" transform="translate(0,0)"/>
<path d="" fill="#000000" transform="translate(0,0)"/>
<path d="" fill="#000000" transform="translate(0,0)"/>
<path d="" fill="#000000" transform="translate(0,0)"/>
<path d="" fill="#000000" transform="translate(0,0)"/>
<path d="" fill="#000000" transform="translate(0,0)"/>
<path d="" fill="#000000" transform="translate(0,0)"/>
<path d="" fill="#000000" transform="translate(0,0)"/>
<path d="" fill="#000000" transform="translate(0,0)"/>
<path d="" fill="#000000" transform="translate(0,0)"/>
<path d="" fill="#000000" transform="translate(0,0)"/>
<path d="" fill="#000000" transform="translate(0,0)"/>
<path d="" fill="#000000" transform="translate(0,0)"/>
<path d="" fill="#000000" transform="translate(0,0)"/>
<path d="" fill="#000000" transform="translate(0,0)"/>
<path d="" fill="#000000" transform="translate(0,0)"/>
<path d="" fill="#000000" transform="translate(0,0)"/>
<path d="" fill="#000000" transform="translate(0,0)"/>
<path d="" fill="#000000" transform="translate(0,0)"/>
<path d="" fill="#000000" transform="translate(0,0)"/>
<path d="" fill="#000000" transform="translate(0,0)"/>
<path d="" fill="#000000" transform="translate(0,0)"/>
<path d="" fill="#000000" transform="translate(0,0)"/>
<path d="" fill="#000000" transform="translate(0,0)"/>
<path d="" fill="#000000" transform="translate(0,0)"/>
<path d="" fill="#000000" transform="translate(0,0)"/>
<path d="" fill="#000000" transform="translate(0,0)"/>
<path d="" fill="#242400" transform="translate(0,0)"/>
<path d="" fill="#000000" transform="translate(0,0)"/>
<path d="" fill="#000000" transform="translate(0,0)"/>
<path d="" fill="#000000" transform="translate(0,0)"/>
<path d="" fill="#000000" transform="translate(0,0)"/>
<path d="" fill="#000000" transform="translate(0,0)"/>
<path d="" fill="#000000" transform="translate(0,0)"/>
<path d="" fill="#000000" transform="translate(0,0)"/>
<path d="" fill="#000000" transform="translate(0,0)"/>
<path d="" fill="#000000" transform="translate(0,0)"/>
<path d="" fill="#000000" transform="translate(0,0)"/>
<path d="" fill="#000000" transform="translate(0,0)"/>
<path d="" fill="#000000" transform="translate(0,0)"/>
<path d="" fill="#000000" transform="translate(0,0)"/>
<path d="" fill="#000000" transform="translate(0,0)"/>
<path d="" fill="#000000" transform="translate(0,0)"/>
<path d="" fill="#000000" transform="translate(0,0)"/>
<path d="" fill="#000000" transform="translate(0,0)"/>
<path d="" fill="#000000" transform="translate(0,0)"/>
<path d="" fill="#000000" transform="translate(0,0)"/>
<path d="" fill="#000000" transform="translate(0,0)"/>
<path d="" fill="#000000" transform="translate(0,0)"/>
<path d="" fill="#000000" transform="translate(0,0)"/>
<path d="" fill="#000000" transform="translate(0,0)"/>
<path d="" fill="#000000" transform="translate(0,0)"/>
<path d="" fill="#000000" transform="translate(0,0)"/>
<path d="" fill="#000000" transform="translate(0,0)"/>
</svg>
